<?xml version="1.0" encoding="UTF-8"?>
<svg xmlns="http://www.w3.org/2000/svg" width="24" height="16" viewBox="0 0 900 600">
  <rect width="900" height="600" fill="#bf0a30"/>
  <rect width="900" height="46.15" y="46.15" fill="#fff"/>
  <rect width="900" height="46.15" y="138.45" fill="#fff"/>
  <rect width="900" height="46.15" y="230.75" fill="#fff"/>
  <rect width="900" height="46.15" y="323.05" fill="#fff"/>
  <rect width="900" height="46.15" y="415.35" fill="#fff"/>
  <rect width="900" height="46.15" y="507.65" fill="#fff"/>
  <rect width="360" height="323.1" fill="#002868"/>
  <g fill="#fff">
    <g id="s3">
      <g id="s4">
        <g id="s6">
          <g id="s12">
            <path id="s" d="M24,22.5 L26.5,29.8 L34.3,29.8 L28,33.8 L30.5,41.1 L24,37.1 L17.5,41.1 L20,33.8 L13.7,29.8 L21.5,29.8 z"/>
            <use href="#s" x="48"/>
            <use href="#s" x="96"/>
            <use href="#s" x="144"/>
            <use href="#s" x="192"/>
            <use href="#s" x="240"/>
          </g>
          <use href="#s12" y="46.2"/>
        </g>
        <use href="#s6" y="92.4"/>
      </g>
      <use href="#s4" y="138.6"/>
    </g>
    <use href="#s3" y="184.8"/>
    <use href="#s" x="24" y="23"/>
    <use href="#s" x="72" y="23"/>
    <use href="#s" x="120" y="23"/>
    <use href="#s" x="168" y="23"/>
    <use href="#s" x="216" y="23"/>
    <use href="#s" x="264" y="23"/>
  </g>
</svg>
